<svg width="18" height="18" viewBox="0 0 18 18" fill="none" xmlns="http://www.w3.org/2000/svg">
<path d="M6.50935 10.3307C6.50935 11.3659 6.50935 12.4011 6.50935 13.4369C6.50935 13.505 6.51318 13.5738 6.50297 13.6409C6.46403 13.8907 6.21508 14.0745 5.92784 14.0712C5.6406 14.0679 5.39803 13.8781 5.36548 13.6278C5.35782 13.5672 5.36101 13.505 5.36101 13.444C5.36101 11.3528 5.36101 9.26168 5.36101 7.17109C5.36101 7.11 5.35782 7.04783 5.36612 6.98728C5.39995 6.73748 5.64379 6.54931 5.93167 6.54713C6.22019 6.54549 6.46658 6.7293 6.50424 6.98019C6.51446 7.04728 6.51063 7.116 6.51063 7.18418C6.50935 8.23302 6.50935 9.28186 6.50935 10.3307Z" fill="#FF044F"/>
<path d="M8.42421 10.2882C8.42421 9.25297 8.42421 8.21777 8.42421 7.18202C8.42421 7.11384 8.42038 7.04512 8.42996 6.97803C8.46762 6.72877 8.71656 6.54442 9.00445 6.54715C9.28339 6.54988 9.52404 6.72768 9.56489 6.96876C9.57702 7.04239 9.57255 7.1182 9.57255 7.19293C9.57319 9.27043 9.57255 11.3479 9.57255 13.4249C9.57255 13.4931 9.57638 13.5618 9.56745 13.6289C9.53425 13.8803 9.29233 14.0679 9.00381 14.0707C8.70763 14.0734 8.45677 13.8781 8.42741 13.6185C8.42038 13.558 8.42358 13.4958 8.42358 13.4347C8.42421 12.3859 8.42421 11.337 8.42421 10.2882Z" fill="#FF044F"/>
<path d="M11.4883 10.2882C11.4883 9.25297 11.4883 8.21777 11.4883 7.18202C11.4883 7.11384 11.4845 7.04512 11.4941 6.97803C11.5317 6.72877 11.7813 6.54442 12.0686 6.54715C12.3475 6.54988 12.5882 6.72768 12.6284 6.96876C12.6405 7.04239 12.636 7.1182 12.636 7.19293C12.6367 9.27043 12.636 11.3479 12.636 13.4249C12.636 13.4931 12.6399 13.5618 12.6309 13.6289C12.5971 13.8803 12.3558 14.0679 12.0673 14.0701C11.7711 14.0728 11.5202 13.8776 11.4909 13.6174C11.4839 13.5569 11.4871 13.4947 11.4871 13.4336C11.4883 12.3859 11.4883 11.337 11.4883 10.2882Z" fill="#FF044F"/>
<path d="M0.97666 3.60018C0.846443 3.60018 0.736013 3.60181 0.625584 3.59963C0.253443 3.59308 -0.00316216 3.38964 2.94402e-05 3.10439C0.00322104 2.81968 0.259188 2.62006 0.636435 2.61951C1.8569 2.61733 3.07737 2.61842 4.29784 2.61842C4.38465 2.61842 4.4721 2.61842 4.59402 2.61842C4.59402 2.38771 4.59402 2.16572 4.59402 1.94374C4.59466 0.751997 5.4698 0.000954483 6.85942 0.000409064C8.29501 -0.000136355 9.73123 -0.000136355 11.1668 0.000409064C12.5105 0.000954483 13.4003 0.760723 13.4022 1.90774C13.4028 2.13791 13.4022 2.36753 13.4022 2.61788C13.5094 2.61788 13.595 2.61788 13.6805 2.61788C14.9093 2.61788 16.1374 2.61569 17.3662 2.61897C17.8456 2.62006 18.1373 2.98603 17.9349 3.32474C17.8328 3.496 17.663 3.58872 17.437 3.59745C17.3036 3.60236 17.1702 3.59854 17.0209 3.59854C16.98 4.01142 16.9398 4.40412 16.9021 4.79628C16.7291 6.62289 16.5562 8.45004 16.3844 10.2767C16.2338 11.8796 16.0863 13.4826 15.9357 15.0851C15.8949 15.5198 15.8591 15.955 15.8023 16.3881C15.6804 17.3196 14.7963 17.9949 13.6856 17.9971C11.2926 18.002 8.8995 17.9987 6.50643 17.9987C5.78066 17.9987 5.05489 18.002 4.32848 17.9982C3.19163 17.9922 2.30564 17.3306 2.19266 16.363C2.06308 15.2514 1.97244 14.1366 1.86584 13.0228C1.72669 11.5627 1.58881 10.1027 1.45157 8.64258C1.31752 7.2163 1.18411 5.79003 1.05007 4.36376C1.02836 4.11505 1.00283 3.86525 0.97666 3.60018ZM2.10649 3.6089C2.13968 3.94979 2.17032 4.26831 2.20096 4.58738C2.31905 5.81621 2.43714 7.04504 2.55587 8.27387C2.69183 9.67942 2.83034 11.0844 2.96631 12.4894C3.08439 13.7117 3.19482 14.934 3.31994 16.1557C3.38058 16.7491 3.73995 17.0175 4.43189 17.018C6.74516 17.018 9.0578 17.018 11.3711 17.018C12.1371 17.018 12.9024 17.0208 13.6684 17.0169C14.2135 17.0148 14.5888 16.7306 14.6623 16.2724C14.6782 16.1715 14.6871 16.069 14.6967 15.9676C14.7989 14.9084 14.8997 13.8491 15.0018 12.7899C15.1391 11.3713 15.2776 9.95213 15.4155 8.53349C15.5361 7.29103 15.658 6.04911 15.778 4.80664C15.8163 4.40958 15.8521 4.01306 15.8897 3.6089C11.2849 3.6089 6.70878 3.6089 2.10649 3.6089ZM5.74683 2.60369C7.92989 2.60369 10.0861 2.60369 12.2526 2.60369C12.2526 2.31026 12.2641 2.03046 12.25 1.7523C12.2283 1.33014 11.8288 0.988163 11.3321 0.985981C9.77655 0.978346 8.22096 0.978346 6.66474 0.985981C6.1777 0.988163 5.77683 1.32087 5.75002 1.73266C5.73151 2.01737 5.74683 2.30371 5.74683 2.60369Z" fill="#FF044F"/>
</svg>
