<svg width="17" height="17" viewBox="0 0 17 17" fill="none" xmlns="http://www.w3.org/2000/svg">
<path d="M15.0479 0.68432C14.134 -0.228107 12.6539 -0.228107 11.74 0.68432L10.9119 1.51698L2.09748 10.3276L2.07875 10.3465C2.07422 10.351 2.07421 10.3558 2.06939 10.3558C2.06002 10.3699 2.04597 10.3838 2.03675 10.3979C2.03675 10.4025 2.03192 10.4025 2.03192 10.4072C2.02255 10.4213 2.01802 10.4306 2.0085 10.4447C2.00397 10.4494 2.00397 10.4539 1.99928 10.4587C1.9946 10.4728 1.98992 10.4822 1.98509 10.4962C1.98509 10.5007 1.98055 10.5007 1.98055 10.5056L0.0248878 16.387C-0.0324811 16.5545 0.0111309 16.7399 0.137138 16.8642C0.225679 16.9515 0.3451 17.0004 0.46935 17C0.520133 16.9991 0.570477 16.9912 0.619065 16.9766L6.49542 15.016C6.49996 15.016 6.49996 15.016 6.50479 15.0115C6.51957 15.0071 6.53377 15.0008 6.54679 14.9926C6.55045 14.9922 6.55367 14.9906 6.5563 14.9881C6.57021 14.9787 6.58894 14.9692 6.60299 14.9598C6.61689 14.9506 6.63109 14.9366 6.64514 14.9272C6.64982 14.9224 6.65436 14.9224 6.65436 14.9178C6.65919 14.9132 6.66855 14.9086 6.67324 14.8991L16.3157 5.25568C17.2281 4.34164 17.2281 2.86147 16.3157 1.94758L15.0479 0.68432ZM6.34571 13.9164L3.08944 10.66L11.2395 2.50918L14.4957 5.76561L6.34571 13.9164ZM2.63078 11.5256L5.47552 14.3704L1.20388 15.7928L2.63078 11.5256ZM15.6561 4.60056L15.1602 5.10127L11.9038 1.84454L12.4046 1.34398C12.9523 0.796581 13.8402 0.796581 14.3882 1.34398L15.6607 2.61661C16.2044 3.16693 16.2023 4.05287 15.6561 4.60056Z" fill="#FF435A"/>
</svg>
