<svg width="28" height="19" viewBox="0 0 28 19" fill="none" xmlns="http://www.w3.org/2000/svg">
<path d="M3.82036 1.17829L0.376459 8.82037C0.137432 9.35077 0.141207 9.95897 0.386801 10.4864L3.81317 17.8443C4.14145 18.5492 4.84859 19 5.62623 19H21C22.1046 19 23 18.1046 23 17V2C23 0.89543 22.1046 0 21 0H5.64376C4.85713 0 4.14355 0.461117 3.82036 1.17829Z" fill="#FF044F"/>
<path d="M24.1796 17.8217L27.6235 10.1796C27.8626 9.64923 27.8588 9.04103 27.6132 8.51363L24.1868 1.15571C23.8586 0.45076 23.1514 4.23877e-07 22.3738 4.91861e-07L7 1.83588e-06C5.89543 1.93244e-06 5 0.895434 5 2L5 17C5 18.1046 5.89543 19 7 19L22.3562 19C23.1429 19 23.8565 18.5389 24.1796 17.8217Z" fill="#FF044F"/>
<path d="M8 9.40161H20.0092M14.0046 15.4062V3.397" stroke="white" stroke-linecap="round" stroke-linejoin="round"/>
</svg>
