<svg width="59" height="59" viewBox="0 0 59 59" fill="none" xmlns="http://www.w3.org/2000/svg">
<path fill-rule="evenodd" clip-rule="evenodd" d="M58.6799 41.3905L58.7157 41.4081L59 41.5487C58.9849 41.5529 58.97 41.5571 58.955 41.5613L58.7157 41.4081L58.6799 41.3905ZM58.7157 41.4081L58.955 41.5613C56.7444 46.3789 54.6623 50.0939 49.8759 53.6135C45.2521 57.0136 38.417 59.3767 33.66 58.9503C29.2133 58.5516 24.4692 57.1093 20.6199 54.2419C15.8377 50.6794 13.5662 47.376 10.8117 41.1672C9.38938 42.3778 9.55112 45.1471 10.1635 47.1925C11.0419 50.1263 12.315 51.5222 13.6179 53.9742C11.2252 53.0214 8.02934 49.147 6.22323 46.538C3.71693 42.9177 2.02289 40.0117 1.48387 35.6842C0.709321 29.4669 2.34287 24.1959 5.7843 19.2086C6.04175 18.8355 6.25859 18.5545 6.527 18.2306L7.27452 17.1971C5.4535 18.2718 3.70948 20.3104 2.66199 21.7577C0.832055 24.2864 0.546544 26.0989 0.00898925 26.9152C-0.112578 25.7411 1.03354 21.8987 1.35266 20.7816C1.8379 19.0822 3.1484 16.7839 4.22336 15.1648C6.69269 11.4453 9.94432 8.14351 14.453 5.474C18.4365 3.11539 25.2159 0.63243 29.1218 0.813423C29.9469 0.85178 32.102 0.91096 31.0695 2.38108C30.531 3.14806 30.4893 2.8111 30.4313 3.83668C30.2758 6.585 32.9534 6.39561 33.9569 5.5287C34.79 4.80907 34.9445 0.945422 35.0827 0C36.2355 0.937332 37.3244 3.4615 38.4119 5.15636L39.7306 6.64387C40.2947 6.9702 42.6625 9.29165 43.9767 9.62936C45.4231 9.97727 46.4201 9.53123 48.2549 11.1089L50.7441 13.7058C51.8595 15.0436 50.4829 15.408 52.6167 18.14C52.9585 18.5775 53.1408 18.9254 53.8721 18.8042C54.6183 18.6806 54.7259 18.2035 55.0263 17.7282C55.1537 18.487 55.1227 19.1769 54.9388 19.8327C54.5662 21.1607 54.5606 20.4589 55.135 21.6039C56.0343 23.3966 54.6604 23.9024 53.3663 24.4881L53.2504 25.631L51.8126 24.384C51.2987 23.8964 50.8394 23.5852 50.2115 23.228C48.8122 22.4317 47.921 21.8024 45.8992 22.7773C45.9347 22.2762 46.1374 21.8869 45.7547 21.5313C44.944 20.7438 41.6372 23.1049 40.6866 23.4761C40.9629 22.5944 41.9865 21.5345 41.8723 20.1869C41.7321 18.5295 39.8038 18.7009 39.1759 18.4528C39.5575 18.0186 41.0851 16.8875 40.3304 16.1399C39.832 15.6464 38.0045 15.764 37.0997 15.8993C33.8157 16.3906 31.558 18.5715 29.5119 20.7166L27.5829 22.7558C26.9618 23.3913 26.235 24.0967 25.3401 24.5621C24.2875 25.1096 22.8711 25.1765 22.1992 24.5636C24.7068 24.0148 26.0764 22.4574 27.1732 21.1276C27.7955 20.3727 28.3278 19.6302 28.8825 18.8256C29.3939 18.0833 29.9411 17.5237 30.4642 16.8207C27.4953 17.9797 24.4554 19.998 22.0933 23.2193C17.8325 29.0303 17.7958 37.8455 21.383 44.1235C27.4424 54.7274 40.6125 56.2706 50.7364 49.4826C52.9289 48.0125 58.0206 43.3373 58.6799 41.3905L58.7157 41.4081V41.4081ZM46.0147 13.9432C47.4283 14.0526 49.0953 15.1849 49.6234 16.4169C47.9244 16.553 46.3908 15.5163 46.0147 13.9432ZM39.2148 10.505C38.0273 10.5884 36.9313 10.6918 35.6305 10.9658C31.3683 11.1702 24.8898 12.1029 20.7984 16.7094C18.9859 18.7501 19.0618 19.6763 18.5589 20.6502C18.3095 21.133 17.6828 21.4689 17.2373 21.8809C11.194 27.4716 14.1644 37.2685 17.1992 43.5964C17.7261 44.695 18.628 46.095 19.0062 47.1632C17.6868 45.0873 16.6973 44.9067 14.8958 40.8529C12.0598 34.4709 11.7233 26.8809 15.0751 21.0793C17.2516 17.3122 21.4802 13.6295 26.4918 11.7421C28.7535 10.8903 31.4186 10.3273 33.5394 10.2088C34.8116 10.1376 37.8448 10.0751 39.2148 10.505Z" fill="#FF044F"/>
</svg>
